HIERARCHY
ROOT joint_Root
{
	OFFSET 0.0 0.0 0.0
	CHANNELS 6 Xposition Yposition Zposition Zrotation Xrotation Yrotation 
	JOINT Hips
	{
		OFFSET -0.726466 93.3139 -2.00062
		CHANNELS 6 Xposition Yposition Zposition Zrotation Xrotation Yrotation 
		JOINT Spine
		{
			OFFSET 15.7357 0.0 0.0
			CHANNELS 6 Xposition Yposition Zposition Zrotation Xrotation Yrotation 
			JOINT Chest
			{
				OFFSET 8.98455 -0.406207 0.0
				CHANNELS 6 Xposition Yposition Zposition Zrotation Xrotation Yrotation 
				JOINT Neck
				{
					OFFSET 16.3773 0.0 0.0
					CHANNELS 6 Xposition Yposition Zposition Zrotation Xrotation Yrotation 
					JOINT Head
					{
						OFFSET 6.45672 0.0 0.0
						CHANNELS 6 Xposition Yposition Zposition Zrotation Xrotation Yrotation 
						End Site
						{
							OFFSET 0.0 0.0 0.0
						}
					}
				}
				JOINT Shoulder_L
				{
					OFFSET 12.9942 -0.242716 4.98039
					CHANNELS 6 Xposition Yposition Zposition Zrotation Xrotation Yrotation 
					JOINT UpperArm_L
					{
						OFFSET 5.34809 0.0 0.0
						CHANNELS 6 Xposition Yposition Zposition Zrotation Xrotation Yrotation 
						JOINT LowerArm_L
						{
							OFFSET 24.3286 1.87007e-05 0.0
							CHANNELS 6 Xposition Yposition Zposition Zrotation Xrotation Yrotation 
							JOINT Hand_L
							{
								OFFSET 22.2916 0.0 0.0
								CHANNELS 6 Xposition Yposition Zposition Zrotation Xrotation Yrotation 
								End Site
								{
									OFFSET 0.0 0.0 0.0
								}
							}
						}
					}
				}
				JOINT Shoulder_R
				{
					OFFSET 12.9945 -0.242716 -4.98039
					CHANNELS 6 Xposition Yposition Zposition Zrotation Xrotation Yrotation 
					JOINT UpperArm_R
					{
						OFFSET -5.34813 0.0 0.0
						CHANNELS 6 Xposition Yposition Zposition Zrotation Xrotation Yrotation 
						JOINT LowerArm_R
						{
							OFFSET -24.3289 0.000322201 0.0
							CHANNELS 6 Xposition Yposition Zposition Zrotation Xrotation Yrotation 
							JOINT Hand_R
							{
								OFFSET -22.2915 -0.000108084 0.0
								CHANNELS 6 Xposition Yposition Zposition Zrotation Xrotation Yrotation 
								End Site
								{
									OFFSET 0.0 0.0 0.0
								}
							}
						}
					}
				}
			}
		}
		JOINT UpperLeg_L
		{
			OFFSET -2.19248 -6.46944 0.0
			CHANNELS 6 Xposition Yposition Zposition Zrotation Xrotation Yrotation 
			JOINT LowerLeg_L
			{
				OFFSET 39.0811 0.0 -1.23785e-05
				CHANNELS 6 Xposition Yposition Zposition Zrotation Xrotation Yrotation 
				JOINT Foot_L
				{
					OFFSET 40.9854 0.0 -1.26872e-05
					CHANNELS 6 Xposition Yposition Zposition Zrotation Xrotation Yrotation 
					JOINT Toes_L
					{
						OFFSET 11.7543 0.0 0.0
						CHANNELS 6 Xposition Yposition Zposition Zrotation Xrotation Yrotation 
						End Site
						{
							OFFSET 0.0 0.0 0.0
						}
					}
				}
			}
		}
		JOINT UpperLeg_R
		{
			OFFSET -2.19251 6.46944 0.0
			CHANNELS 6 Xposition Yposition Zposition Zrotation Xrotation Yrotation 
			JOINT LowerLeg_R
			{
				OFFSET -39.0811 -0.00228153 -0.0401928
				CHANNELS 6 Xposition Yposition Zposition Zrotation Xrotation Yrotation 
				JOINT Foot_R
				{
					OFFSET -40.9854 0.0 0.0
					CHANNELS 6 Xposition Yposition Zposition Zrotation Xrotation Yrotation 
					JOINT Toes_R
					{
						OFFSET -11.7543 0.0 0.0
						CHANNELS 6 Xposition Yposition Zposition Zrotation Xrotation Yrotation 
						End Site
						{
							OFFSET 0.0 0.0 0.0
						}
					}
				}
			}
		}
	}
}
MOTION
Frames:	5
Frame Time:	0.0333333
0.000000 0.000000 0.000000 0.000000 0.000000 -0.000000 -2.514160 91.838500 1.325700 88.466500 0.393243 2.827410 15.735700 0.000005 -0.000001 57.258100 85.628100 -53.094600 8.984550 -0.406207 -0.000000 -0.213632 -5.017570 8.317210 16.377300 -0.000001 -0.000001 0.774903 -0.763713 -1.211020 6.456720 -0.000001 -0.000000 -1.819730 0.250639 8.283580 12.994200 -0.242716 4.980390 -85.146800 -9.919300 -63.761500 5.348090 -0.000007 -0.000001 -69.090900 -53.267300 -105.863000 24.328600 0.000019 0.000005 3.496090 3.063720 -48.819600 22.291600 -0.000001 0.000005 17.870600 5.610610 -11.997700 12.994500 -0.242716 -4.980390 90.069000 -0.179186 -68.928400 -5.348130 -0.000001 -0.000004 -42.235900 74.181200 -4.548730 -24.328900 0.000322 -0.000009 21.879300 1.357650 -86.624300 -22.291500 -0.000108 -0.000004 29.012600 5.681750 -21.679200 -2.192480 -6.469440 -0.000000 -168.178000 -17.162400 -1.330630 39.081100 -0.000007 -0.000012 -0.164006 0.445468 20.212200 40.985400 -0.000006 -0.000013 -8.496280 -1.103960 -63.400600 11.754300 -0.000000 0.000003 -0.000125 -0.001243 -16.625000 -2.192510 6.469440 -0.000001 174.158000 22.600700 -179.659000 -39.081100 -0.002282 -0.040193 -0.087687 0.244600 20.408500 -40.985400 0.000008 0.000006 -4.564630 -0.229967 -65.653000 -11.754300 -0.000006 -0.000006 -0.002726 -0.037461 -18.096500
0.000000 0.000000 0.000000 0.000000 0.000000 -0.000000 -2.502110 91.831500 1.300860 88.464000 0.438686 2.815150 15.735700 0.000005 -0.000001 56.758200 85.630500 -52.580100 8.984550 -0.406207 -0.000000 -0.256086 -5.081530 8.344820 16.377300 -0.000001 -0.000001 0.785958 -0.749444 -1.232190 6.456720 -0.000001 -0.000000 -1.910200 0.245885 8.348660 12.994200 -0.242716 4.980390 -85.138200 -9.935460 -63.757200 5.348090 -0.000007 -0.000001 -69.206600 -53.286800 -105.828000 24.328600 0.000019 0.000005 3.481720 3.053180 -48.800100 22.291600 -0.000001 0.000005 17.877200 5.610710 -12.004200 12.994500 -0.242716 -4.980390 90.071000 -0.184068 -68.911400 -5.348130 -0.000001 -0.000004 -42.193800 74.144400 -4.613690 -24.328900 0.000322 -0.000009 21.875700 1.371350 -86.589700 -22.291500 -0.000108 -0.000004 28.983200 5.681710 -21.718800 -2.192480 -6.469440 -0.000000 -168.199000 -16.984200 -1.390430 39.081100 -0.000007 -0.000012 -0.166921 0.452112 20.264500 40.985400 -0.000006 -0.000013 -8.508190 -1.157830 -63.441500 11.754300 -0.000000 0.000003 -0.000130 -0.001285 -16.626600 -2.192510 6.469440 -0.000001 174.121000 22.666400 -179.668000 -39.081100 -0.002282 -0.040193 -0.093696 0.260731 20.410000 -40.985400 0.000008 0.000006 -4.697740 -0.176231 -65.636200 -11.754300 -0.000006 -0.000006 -0.002756 -0.037806 -18.110500
0.000000 0.000000 0.000000 0.000000 0.000000 -0.000000 -2.484790 91.841000 1.254900 88.507000 0.403722 2.881550 15.735700 0.000005 -0.000001 56.901500 85.621700 -52.729700 8.984550 -0.406207 -0.000000 -0.230003 -5.071460 8.333090 16.377300 -0.000001 -0.000001 0.723181 -0.754934 -1.246110 6.456720 -0.000001 -0.000000 -1.912510 0.224500 8.468620 12.994200 -0.242716 4.980390 -85.155900 -9.904680 -63.771000 5.348090 -0.000007 -0.000001 -69.179700 -53.301700 -105.773000 24.328600 0.000019 0.000005 3.485910 3.058930 -48.780800 22.291600 -0.000001 0.000005 17.919100 5.609530 -11.929300 12.994500 -0.242716 -4.980390 90.043600 -0.112925 -68.880700 -5.348130 -0.000001 -0.000004 -42.206000 74.048200 -4.534340 -24.328900 0.000322 -0.000009 21.833000 1.355160 -86.622600 -22.291500 -0.000108 -0.000004 28.842200 5.681640 -21.784400 -2.192480 -6.469440 -0.000000 -168.245000 -17.025500 -1.320980 39.081100 -0.000007 -0.000012 -0.165512 0.449582 20.211200 40.985400 -0.000006 -0.000013 -8.486830 -1.193790 -63.387400 11.754300 -0.000000 0.000003 -0.000122 -0.001223 -16.624300 -2.192510 6.469440 -0.000001 174.070000 22.546600 -179.644000 -39.081100 -0.002282 -0.040193 -0.092721 0.257946 20.422000 -40.985400 0.000008 0.000006 -4.639690 -0.215002 -65.618000 -11.754300 -0.000006 -0.000006 -0.002855 -0.038949 -18.157100
0.000000 0.000000 0.000000 0.000000 0.000000 -0.000000 -2.479460 91.825900 1.234520 88.515900 0.469637 2.985640 15.735700 0.000005 -0.000001 56.664100 85.583900 -52.493100 8.984550 -0.406207 -0.000000 -0.184004 -5.141610 8.333650 16.377300 -0.000001 -0.000001 0.709417 -0.791428 -1.227880 6.456720 -0.000001 -0.000000 -1.909690 0.182083 8.594340 12.994200 -0.242716 4.980390 -85.154600 -9.905090 -63.765500 5.348090 -0.000007 -0.000001 -69.249900 -53.239800 -105.710000 24.328600 0.000019 0.000005 3.388310 2.964500 -48.862100 22.291600 -0.000001 0.000005 17.829200 5.609630 -11.935500 12.994500 -0.242716 -4.980390 90.031600 -0.081717 -68.847900 -5.348130 -0.000001 -0.000004 -42.263600 74.013900 -4.466740 -24.328900 0.000322 -0.000009 21.921600 1.358820 -86.628600 -22.291500 -0.000108 -0.000004 28.907600 5.681700 -21.732600 -2.192480 -6.469440 -0.000000 -168.238000 -16.970100 -1.324540 39.081100 -0.000007 -0.000012 -0.166824 0.449578 20.358500 40.985400 -0.000006 -0.000013 -8.467510 -1.147160 -63.436300 11.754300 -0.000000 0.000003 -0.000120 -0.001200 -16.623400 -2.192510 6.469440 -0.000001 173.978000 22.616700 -179.541000 -39.081100 -0.002282 -0.040193 -0.099422 0.275398 20.459200 -40.985400 0.000008 0.000006 -4.905090 -0.174778 -65.621600 -11.754300 -0.000006 -0.000006 -0.002723 -0.037425 -18.095000
0.000000 0.000000 0.000000 0.000000 0.000000 -0.000000 -2.457030 91.828900 1.169170 88.546100 0.333055 3.090540 15.735700 0.000005 -0.000001 57.299800 85.572900 -53.138300 8.984550 -0.406207 -0.000000 -0.115239 -5.068110 8.317540 16.377300 -0.000001 -0.000001 0.731945 -0.857943 -1.191610 6.456720 -0.000001 -0.000000 -1.908860 0.156163 8.662740 12.994200 -0.242716 4.980390 -85.168300 -9.883130 -63.780500 5.348090 -0.000007 -0.000001 -69.188700 -53.195900 -105.566000 24.328600 0.000019 0.000005 3.341980 2.918780 -48.911300 22.291600 -0.000001 0.000005 17.892200 5.609790 -11.945400 12.994500 -0.242716 -4.980390 90.023700 -0.061166 -68.816900 -5.348130 -0.000001 -0.000004 -42.321600 73.896900 -4.454610 -24.328900 0.000322 -0.000009 21.823800 1.364410 -86.598000 -22.291500 -0.000108 -0.000004 28.729000 5.681530 -21.865600 -2.192480 -6.469440 -0.000000 -168.253000 -17.131000 -1.240800 39.081100 -0.000007 -0.000012 -0.165433 0.445095 20.389300 40.985400 -0.000006 -0.000013 -8.430240 -1.146430 -63.417200 11.754300 -0.000000 0.000003 -0.000098 -0.001010 -16.616300 -2.192510 6.469440 -0.000001 173.933000 22.405800 -179.546000 -39.081100 -0.002282 -0.040193 -0.099795 0.275447 20.523900 -40.985400 0.000008 0.000006 -4.923330 -0.233955 -65.595000 -11.754300 -0.000006 -0.000006 -0.002815 -0.038487 -18.138300
